<?xml version="1.0" encoding="UTF-8" standalone="no"?>
<svg
   xmlns:sketch="http://www.bohemiancoding.com/sketch/ns"
   xmlns:dc="http://purl.org/dc/elements/1.1/"
   xmlns:cc="http://creativecommons.org/ns#"
   xmlns:rdf="http://www.w3.org/1999/02/22-rdf-syntax-ns#"
   xmlns:svg="http://www.w3.org/2000/svg"
   xmlns="http://www.w3.org/2000/svg"
   xmlns:sodipodi="http://sodipodi.sourceforge.net/DTD/sodipodi-0.dtd"
   xmlns:inkscape="http://www.inkscape.org/namespaces/inkscape"
   width="261px"
   height="61px"
   viewBox="0 0 261 61"
   version="1.1"
   id="svg2"
   inkscape:version="0.48.4 r9939"
   sodipodi:docname="pybossa.svg">
  <metadata
     id="metadata17">
    <rdf:RDF>
      <cc:Work
         rdf:about="">
        <dc:format>image/svg+xml</dc:format>
        <dc:type
           rdf:resource="http://purl.org/dc/dcmitype/StillImage" />
      </cc:Work>
    </rdf:RDF>
  </metadata>
  <sodipodi:namedview
     pagecolor="#ffffff"
     bordercolor="#666666"
     borderopacity="1"
     objecttolerance="10"
     gridtolerance="10"
     guidetolerance="10"
     inkscape:pageopacity="0"
     inkscape:pageshadow="2"
     inkscape:window-width="640"
     inkscape:window-height="480"
     id="namedview15"
     showgrid="false"
     inkscape:zoom="1.1034483"
     inkscape:cx="130.5"
     inkscape:cy="30.5"
     inkscape:window-x="0"
     inkscape:window-y="24"
     inkscape:window-maximized="0"
     inkscape:current-layer="svg2" />
  <!-- Generator: Sketch 3.5.2 (25235) - http://www.bohemiancoding.com/sketch -->
  <title
     id="title4">Group 2</title>
  <desc
     id="desc6">Created with Sketch.</desc>
  <defs
     id="defs8" />
  <g
     id="Page-1"
     stroke="none"
     stroke-width="1"
     fill="none"
     fill-rule="evenodd"
     sketch:type="MSPage"
     style="fill:#ffffff">
    <g
       id="Desktop"
       sketch:type="MSArtboardGroup"
       transform="translate(-312.000000, -264.000000)"
       fill="#F6A75F"
       style="fill:#ffffff">
      <g
         id="Group-2"
         sketch:type="MSLayerGroup"
         transform="translate(312.000000, 264.000000)"
         style="fill:#ffffff">
        <path
           d="M44.5479,31.4302 L36.7279,45.1352 C36.4779,45.5702 35.8679,46.0742 35.3659,46.0742 L19.7279,46.0742 C19.2259,46.0742 18.6159,45.5702 18.3639,45.1352 L10.5459,31.5062 C10.2939,31.0722 10.2939,30.3292 10.5459,29.8952 L18.3639,16.2822 C18.6159,15.8472 19.2249,15.4352 19.7279,15.4352 L35.3659,15.4352 C35.8679,15.4352 36.4779,15.8272 36.7279,16.2632 L44.5479,29.8362 C44.7979,30.2712 44.7989,30.9942 44.5479,31.4302 M52.7179,14.8992 L28.4019,0.8322 C27.8699,0.5252 27.0209,0.5252 26.4869,0.8322 L1.9269,14.8992 C1.3939,15.2062 0.7479,15.9562 0.7479,16.5742 L0.7479,44.7072 C0.7479,45.3222 1.4009,46.0742 1.9349,46.3832 L26.3939,60.4492 C26.9269,60.7562 27.8489,60.7582 28.3819,60.4492 L52.6919,46.3832 C53.2239,46.0742 53.6159,45.3242 53.6159,44.7072 L53.6159,16.5742 C53.6159,15.9582 53.2529,15.2072 52.7179,14.8992"
           id="Fill-5"
           sketch:type="MSShapeGroup"
           style="fill:#ffffff" />
        <path
           d="M175.5283,38.4883 C174.3693,39.8183 172.5813,40.4823 170.1643,40.4823 C167.7473,40.4823 165.9553,39.8183 164.7863,38.4883 C163.6163,37.1603 163.0323,34.5933 163.0323,30.7883 C163.0323,26.9823 163.6163,24.4103 164.7863,23.0713 C165.9553,21.7343 167.7473,21.0643 170.1643,21.0643 C172.5813,21.0643 174.3693,21.7343 175.5283,23.0713 C176.6863,24.4103 177.2663,26.9823 177.2663,30.7883 C177.2663,34.5933 176.6863,37.1603 175.5283,38.4883 L175.5283,38.4883 Z M170.1493,15.0103 C165.4853,15.0103 161.9033,16.3693 159.4073,19.0873 C156.9093,21.8033 155.6613,25.6993 155.6613,30.7733 C155.6613,35.8473 156.9093,39.7423 159.4073,42.4613 C161.9033,45.1773 165.4853,46.5353 170.1493,46.5353 C174.8133,46.5353 178.3953,45.1773 180.8923,42.4613 C183.3893,39.7423 184.6373,35.8473 184.6373,30.7733 C184.6373,25.6993 183.3893,21.8033 180.8923,19.0873 C178.3953,16.3693 174.8133,15.0103 170.1493,15.0103 L170.1493,15.0103 Z M252.7103,35.3863 C252.7103,38.4843 250.8723,40.0333 247.1963,40.0333 L247.1353,40.0333 C243.2803,40.0333 241.3523,38.3943 241.3523,35.1173 C241.3723,32.4623 243.6903,31.1333 248.3053,31.1333 C249.5233,31.1523 250.9923,31.2823 252.7103,31.5223 L252.7103,35.3863 Z M256.6053,18.2923 C254.2883,16.0653 250.9423,14.9513 246.5673,14.9513 C243.1313,14.9513 240.0053,15.5203 237.1873,16.6583 L237.1873,22.6223 C239.7243,21.5853 242.7113,21.0643 246.1473,21.0643 C250.4823,21.0643 252.6503,22.9923 252.6503,26.8463 C250.7333,26.5683 248.9343,26.4273 247.2563,26.4273 C244.9193,26.4273 242.8913,26.6933 241.1733,27.2213 C239.4543,27.7523 238.1553,28.3853 237.2783,29.1253 C236.3983,29.8643 235.7043,30.7223 235.1943,31.7023 C234.6853,32.6803 234.3713,33.4953 234.2513,34.1443 C234.1323,34.7933 234.0713,35.4273 234.0713,36.0473 C234.0713,38.9653 235.1353,41.4413 237.2623,43.4783 C239.3893,45.5173 242.7013,46.5353 247.1963,46.5353 C251.5713,46.5353 254.8113,45.5213 256.9213,43.4943 C259.0283,41.4683 260.0823,39.0433 260.0823,36.2263 L260.0823,27.9553 C260.0823,23.7413 258.9233,20.5203 256.6053,18.2923 L256.6053,18.2923 Z M203.2283,28.6603 C201.7993,28.0313 200.3663,27.5323 198.9283,27.1623 C197.4893,26.7933 196.2703,26.3633 195.2723,25.8743 C194.2733,25.3843 193.7743,24.7113 193.7743,23.8513 C193.7743,22.1333 195.5323,21.2743 199.0483,21.2743 C201.6853,21.2743 204.0423,21.7633 206.1203,22.7423 L206.1203,17.1383 C203.5833,15.6803 200.7963,14.9513 197.7593,14.9513 C194.5233,14.9513 191.8213,15.7753 189.6533,17.4233 C187.4853,19.0713 186.4023,21.4333 186.4023,24.5093 C186.4023,26.4673 186.9073,28.0903 187.9153,29.3803 C188.9243,30.6693 190.1423,31.5923 191.5713,32.1513 C192.9993,32.7123 194.4273,33.1943 195.8563,33.6043 C197.2843,34.0153 198.5043,34.4943 199.5123,35.0433 C200.5203,35.5933 201.0263,36.3163 201.0263,37.2163 C201.0263,38.1953 200.7063,38.9273 200.0663,39.4183 C199.4273,39.9083 198.0493,40.1523 195.9313,40.1523 C192.8543,40.1523 189.9673,39.2523 187.2713,37.4553 L187.2713,44.0173 C190.2273,45.6953 193.4643,46.5353 196.9793,46.5353 C200.4163,46.5353 203.1783,45.6873 205.2653,43.9883 C207.3533,42.2913 208.3973,40.1523 208.3973,37.5763 C208.3973,35.2593 207.8923,33.3493 206.8823,31.8513 C205.8753,30.3533 204.6563,29.2913 203.2283,28.6603 L203.2283,28.6603 Z M145.1473,37.8223 C144.2073,39.4163 142.5693,40.2133 140.2323,40.2133 C136.5563,40.2133 134.7183,39.1093 134.7183,36.9063 L134.7183,21.2153 C136.0963,20.8763 137.6843,20.7043 139.4833,20.7043 C141.7803,20.7043 143.5343,21.3903 144.7423,22.7633 C145.9503,24.1353 146.5553,26.5463 146.5553,29.9923 C146.5553,33.6193 146.0863,36.2303 145.1473,37.8223 L145.1473,37.8223 Z M139.7533,14.9513 C138.1543,14.9513 136.4763,15.1103 134.7183,15.4293 L134.7183,3.6533 L127.3463,3.6533 L127.3463,36.2133 C127.3463,39.0543 128.4003,41.4843 130.5073,43.5043 C132.6163,45.5253 135.8573,46.5353 140.2323,46.5353 C141.2473,46.5353 142.2563,46.4553 143.2603,46.2953 C144.2643,46.1343 145.4483,45.7153 146.8103,45.0353 C148.1743,44.3533 149.3413,43.4723 150.3163,42.3923 C151.2923,41.3123 152.1353,39.7263 152.8523,37.6343 C153.5693,35.5433 153.9263,33.1253 153.9263,30.3833 C153.9263,25.3993 152.7033,21.5803 150.2573,18.9283 C147.8093,16.2763 144.3083,14.9513 139.7533,14.9513 L139.7533,14.9513 Z M226.8983,28.6603 C225.4693,28.0313 224.0363,27.5323 222.5973,27.1623 C221.1593,26.7933 219.9413,26.3633 218.9423,25.8743 C217.9423,25.3843 217.4433,24.7113 217.4433,23.8513 C217.4433,22.1333 219.2013,21.2743 222.7173,21.2743 C225.3543,21.2743 227.7113,21.7633 229.7903,22.7423 L229.7903,17.1383 C227.2533,15.6803 224.4663,14.9513 221.4283,14.9513 C218.1923,14.9513 215.4903,15.7753 213.3233,17.4233 C211.1553,19.0713 210.0723,21.4333 210.0723,24.5093 C210.0723,26.4673 210.5763,28.0903 211.5853,29.3803 C212.5943,30.6693 213.8123,31.5923 215.2413,32.1513 C216.6693,32.7123 218.0963,33.1943 219.5263,33.6043 C220.9543,34.0153 222.1733,34.4943 223.1813,35.0433 C224.1903,35.5933 224.6943,36.3163 224.6943,37.2163 C224.6943,38.1953 224.3753,38.9273 223.7363,39.4183 C223.0963,39.9083 221.7173,40.1523 219.6013,40.1523 C216.5243,40.1523 213.6373,39.2523 210.9413,37.4553 L210.9413,44.0173 C213.8973,45.6953 217.1323,46.5353 220.6493,46.5353 C224.0853,46.5353 226.8483,45.6873 228.9353,43.9883 C231.0223,42.2913 232.0673,40.1523 232.0673,37.5763 C232.0673,35.2593 231.5623,33.3493 230.5533,31.8513 C229.5443,30.3533 228.3263,29.2913 226.8983,28.6603 L226.8983,28.6603 Z M85.8953,38.8793 C84.6473,40.2673 82.8353,40.9613 80.4583,40.9613 C79.1383,40.9613 77.6303,40.8433 75.9323,40.6013 L75.9323,24.6313 C75.9323,22.4323 77.7703,21.3343 81.4463,21.3343 C83.7843,21.3343 85.4213,22.1333 86.3603,23.7313 C87.2993,25.3293 87.7683,27.9263 87.7683,31.5223 C87.7683,35.0393 87.1433,37.4903 85.8953,38.8793 L85.8953,38.8793 Z M91.5753,19.1463 C90.5943,18.0683 89.4213,17.1893 88.0533,16.5093 C86.6843,15.8303 85.4963,15.4103 84.4873,15.2513 C83.4783,15.0913 82.4653,15.0103 81.4463,15.0103 C77.0713,15.0103 73.8303,16.0253 71.7213,18.0513 C69.6143,20.0803 68.5603,22.5033 68.5603,25.3183 L68.5603,57.4123 L75.9323,57.4123 L75.9323,46.1153 C77.5703,46.4743 79.2483,46.6543 80.9663,46.6543 C85.5413,46.6543 89.0573,45.3163 91.5143,42.6383 C93.9713,39.9633 95.2003,36.1273 95.2003,31.1333 C95.2003,28.3963 94.8403,25.9843 94.1223,23.8963 C93.4033,21.8073 92.5523,20.2243 91.5753,19.1463 L91.5753,19.1463 Z M110.4493,36.7973 L103.5873,15.4293 L95.7663,15.4293 L106.7643,44.4683 C104.9463,49.4223 102.9773,51.9003 100.8613,51.9003 C99.7213,51.9003 98.5633,51.6483 97.3833,51.1503 L97.3833,57.2933 C98.9633,57.8513 100.5103,58.1333 102.0283,58.1333 C104.0873,58.1333 106.0743,57.3573 107.9933,55.8103 C109.9113,54.2593 111.6883,51.2593 113.3273,46.8043 L124.9833,15.4293 L117.1923,15.4293 L110.4493,36.7973 Z"
           id="Fill-9"
           sketch:type="MSShapeGroup"
           style="fill:#ffffff" />
      </g>
    </g>
  </g>
</svg>
