<?xml version="1.0" encoding="UTF-8" standalone="no"?>
<svg
   xmlns:sketch="http://www.bohemiancoding.com/sketch/ns"
   xmlns:dc="http://purl.org/dc/elements/1.1/"
   xmlns:cc="http://creativecommons.org/ns#"
   xmlns:rdf="http://www.w3.org/1999/02/22-rdf-syntax-ns#"
   xmlns:svg="http://www.w3.org/2000/svg"
   xmlns="http://www.w3.org/2000/svg"
   xmlns:sodipodi="http://sodipodi.sourceforge.net/DTD/sodipodi-0.dtd"
   xmlns:inkscape="http://www.inkscape.org/namespaces/inkscape"
   width="262px"
   height="61px"
   viewBox="0 0 262 61"
   version="1.1"
   id="svg2"
   inkscape:version="0.48.4 r9939"
   sodipodi:docname="scifabric2.svg">
  <metadata
     id="metadata19">
    <rdf:RDF>
      <cc:Work
         rdf:about="">
        <dc:format>image/svg+xml</dc:format>
        <dc:type
           rdf:resource="http://purl.org/dc/dcmitype/StillImage" />
        <dc:title>Group 3</dc:title>
      </cc:Work>
    </rdf:RDF>
  </metadata>
  <sodipodi:namedview
     pagecolor="#ffffff"
     bordercolor="#666666"
     borderopacity="1"
     objecttolerance="10"
     gridtolerance="10"
     guidetolerance="10"
     inkscape:pageopacity="0"
     inkscape:pageshadow="2"
     inkscape:window-width="640"
     inkscape:window-height="480"
     id="namedview17"
     showgrid="false"
     inkscape:zoom="1.0992366"
     inkscape:cx="131"
     inkscape:cy="30.5"
     inkscape:window-x="10"
     inkscape:window-y="34"
     inkscape:window-maximized="0"
     inkscape:current-layer="svg2" />
  <!-- Generator: Sketch 3.5.2 (25235) - http://www.bohemiancoding.com/sketch -->
  <title
     id="title4">Group 3</title>
  <desc
     id="desc6">Created with Sketch.</desc>
  <defs
     id="defs8" />
  <g
     id="Page-1"
     stroke="none"
     stroke-width="1"
     fill="none"
     fill-rule="evenodd"
     sketch:type="MSPage"
     style="fill:#ffffff">
    <g
       id="Desktop-Copy"
       sketch:type="MSArtboardGroup"
       transform="translate(-312.000000, -94.000000)"
       fill="#022632"
       style="fill:#ffffff">
      <g
         id="Group-3"
         sketch:type="MSLayerGroup"
         transform="translate(312.000000, 94.000000)"
         style="fill:#ffffff">
        <path
           d="M52.5996,14.7329 L28.2856,0.6659 C28.0726,0.5429 27.8286,0.4709 27.5496,0.4459 L36.5616,16.0329 C36.5726,16.0489 36.5926,16.0659 36.6026,16.0829 L38.6456,19.6269 L43.7656,28.4899 L43.7556,28.4959 L44.4286,29.6639 C44.6796,30.0969 44.6796,30.8279 44.4296,31.2629 L43.9836,32.0359 L43.9846,32.0359 L27.5496,60.5039 C27.8286,60.4789 28.0986,60.4069 28.3116,60.2829 L52.5966,46.2159 C53.1286,45.9089 53.4976,45.1589 53.4976,44.5409 L53.4976,16.4079 C53.4976,15.7939 53.1356,15.0419 52.5996,14.7329"
           id="Fill-62"
           sketch:type="MSShapeGroup"
           style="fill:#ffffff" />
        <path
           d="M32.0479,45.9087 L19.6099,45.9087 C19.1079,45.9087 18.4979,45.4047 18.2459,44.9697 L10.4269,31.3407 C10.1759,30.9057 10.1759,30.1637 10.4269,29.7287 L18.2459,16.1157 C18.4979,15.6817 19.1079,15.2687 19.6099,15.2687 L32.1939,15.2687 L24.4009,1.7927 L1.8079,14.7327 C1.2759,15.0397 0.6289,15.7917 0.6289,16.4077 L0.6289,44.5407 C0.6289,45.1567 1.2809,45.9077 1.8169,46.2167 L24.3789,59.1917 L32.0479,45.9087 Z"
           id="Fill-64"
           sketch:type="MSShapeGroup"
           style="fill:#ffffff" />
        <path
           d="M52.5996,14.7329 L28.2856,0.6659 C28.0726,0.5429 27.8286,0.4709 27.5496,0.4459 L36.5616,16.0329 C36.5726,16.0489 36.5926,16.0659 36.6026,16.0829 L38.6456,19.6269 L43.7656,28.4899 L43.7556,28.4959 L44.4286,29.6639 C44.6796,30.0969 44.6796,30.8279 44.4296,31.2629 L43.9836,32.0359 L43.9846,32.0359 L27.5496,60.5039 C27.8286,60.4789 28.0986,60.4069 28.3116,60.2829 L52.5966,46.2159 C53.1286,45.9089 53.4976,45.1589 53.4976,44.5409 L53.4976,16.4079 C53.4976,15.7939 53.1356,15.0419 52.5996,14.7329"
           id="Fill-66"
           sketch:type="MSShapeGroup"
           style="fill:#ffffff" />
        <path
           d="M167.5244,35.2212 C167.5244,38.3182 165.6864,39.8662 162.0114,39.8662 L161.9504,39.8662 C158.0954,39.8662 156.1684,38.2282 156.1684,34.9512 C156.1864,32.2942 158.5054,30.9662 163.1194,30.9662 C164.3374,30.9862 165.8064,31.1172 167.5244,31.3562 L167.5244,35.2212 Z M161.3804,14.7842 C157.9454,14.7842 154.8184,15.3532 152.0024,16.4922 L152.0024,22.4562 C154.5394,21.4172 157.5254,20.8972 160.9624,20.8972 C165.2964,20.8972 167.4644,22.8262 167.4644,26.6812 C165.5464,26.4022 163.7504,26.2612 162.0704,26.2612 C159.7334,26.2612 157.7074,26.5262 155.9884,27.0552 C154.2694,27.5842 152.9704,28.2202 152.0914,28.9582 C151.2124,29.6992 150.5184,30.5572 150.0074,31.5362 C149.5004,32.5142 149.1854,33.3282 149.0664,33.9782 C148.9454,34.6262 148.8844,35.2622 148.8844,35.8802 C148.8844,38.7982 149.9494,41.2752 152.0784,43.3132 C154.2054,45.3502 157.5154,46.3672 162.0114,46.3672 C166.3844,46.3672 169.6274,45.3552 171.7344,43.3272 C173.8414,41.3002 174.8964,38.8772 174.8964,36.0602 L174.8964,27.7892 C174.8964,23.5752 173.7374,20.3542 171.4204,18.1252 C169.1024,15.8992 165.7554,14.7842 161.3804,14.7842 L161.3804,14.7842 Z M254.2924,21.1672 C256.9494,21.1672 259.4864,21.6572 261.9024,22.6352 L261.9024,16.4922 C259.0054,15.3532 256.0604,14.7842 253.0644,14.7842 C248.4084,14.7842 244.8334,16.1432 242.3364,18.8602 C239.8374,21.5762 238.5894,25.4922 238.5894,30.6072 C238.5894,35.6802 239.8374,39.5752 242.3364,42.2932 C244.8334,45.0112 248.4084,46.3672 253.0644,46.3672 C256.0604,46.3672 259.0054,45.7992 261.9024,44.6602 L261.9024,38.5182 C259.3654,39.5362 256.8294,40.0462 254.2924,40.0462 C251.4744,40.0462 249.3814,39.3912 248.0134,38.0822 C246.6444,36.7762 245.9614,34.2832 245.9614,30.6072 C245.9614,26.8902 246.6444,24.3892 248.0134,23.1012 C249.3814,21.8122 251.4744,21.1672 254.2924,21.1672 L254.2924,21.1672 Z M196.4984,37.6572 C195.5584,39.2502 193.9204,40.0462 191.5844,40.0462 C187.9084,40.0462 186.0704,38.9442 186.0704,36.7392 L186.0704,21.0492 C187.4484,20.7082 189.0374,20.5372 190.8344,20.5372 C193.1304,20.5372 194.8844,21.2252 196.0934,22.5972 C197.3004,23.9692 197.9064,26.3792 197.9064,29.8252 C197.9064,33.4522 197.4374,36.0642 196.4984,37.6572 L196.4984,37.6572 Z M191.1044,14.7842 C189.5054,14.7842 187.8284,14.9452 186.0704,15.2642 L186.0704,3.4882 L178.6994,3.4882 L178.6994,36.0462 C178.6994,38.8872 179.7524,41.3172 181.8594,43.3382 C183.9664,45.3582 187.2094,46.3672 191.5844,46.3672 C192.5974,46.3672 193.6074,46.2892 194.6114,46.1282 C195.6164,45.9672 196.7984,45.5472 198.1624,44.8682 C199.5254,44.1872 200.6924,43.3062 201.6684,42.2252 C202.6424,41.1462 203.4874,39.5592 204.2054,37.4672 C204.9204,35.3752 205.2784,32.9582 205.2784,30.2172 C205.2784,25.2332 204.0544,21.4142 201.6084,18.7622 C199.1624,16.1102 195.6604,14.7842 191.1044,14.7842 L191.1044,14.7842 Z M227.3264,45.8892 L234.6674,45.8892 L234.6674,15.2642 L227.3264,15.2642 L227.3264,45.8892 Z M149.6084,15.2642 L142.5664,15.2642 C142.5664,12.6072 142.9864,10.8202 143.8254,9.9012 C144.6644,8.9822 146.0434,8.5222 147.9614,8.5222 C148.3204,8.5222 148.8714,8.5622 149.6084,8.6422 L149.6084,2.8582 C148.5894,2.6582 147.5894,2.5582 146.6124,2.5582 C139.0414,2.5582 135.2344,6.7932 135.1954,15.2642 L129.9814,15.2642 L129.9814,21.5872 L135.1954,21.5872 L135.1954,45.8892 L142.5664,45.8892 L142.5664,21.5872 L149.6084,21.5872 L149.6084,15.2642 Z M85.2674,28.4942 C83.8394,27.8652 82.4064,27.3662 80.9664,26.9962 C79.5294,26.6262 78.3104,26.1972 77.3124,25.7072 C76.3124,25.2172 75.8144,24.5432 75.8144,23.6842 C75.8144,21.9662 77.5714,21.1072 81.0874,21.1072 C83.7244,21.1072 86.0824,21.5972 88.1604,22.5752 L88.1604,16.9722 C85.6234,15.5142 82.8364,14.7842 79.7984,14.7842 C76.5624,14.7842 73.8614,15.6082 71.6934,17.2562 C69.5254,18.9052 68.4414,21.2672 68.4414,24.3442 C68.4414,26.3012 68.9464,27.9242 69.9554,29.2132 C70.9624,30.5022 72.1814,31.4252 73.6104,31.9852 C75.0394,32.5442 76.4664,33.0292 77.8964,33.4382 C79.3244,33.8492 80.5434,34.3272 81.5504,34.8762 C82.5604,35.4262 83.0654,36.1512 83.0654,37.0502 C83.0654,38.0282 82.7464,38.7622 82.1054,39.2512 C81.4664,39.7422 80.0874,39.9862 77.9704,39.9862 C74.8944,39.9862 72.0074,39.0862 69.3104,37.2892 L69.3104,43.8512 C72.2674,45.5302 75.5034,46.3672 79.0194,46.3672 C82.4554,46.3672 85.2164,45.5202 87.3044,43.8222 C89.3924,42.1232 90.4364,39.9862 90.4364,37.4092 C90.4364,35.0922 89.9314,33.1832 88.9214,31.6852 C87.9144,30.1872 86.6954,29.1232 85.2674,28.4942 L85.2674,28.4942 Z M119.2264,45.8892 L126.5684,45.8892 L126.5684,15.2642 L119.2264,15.2642 L119.2264,45.8892 Z M96.4254,18.8602 C93.9274,21.5762 92.6804,25.4922 92.6804,30.6072 C92.6804,35.6802 93.9274,39.5752 96.4254,42.2932 C98.9234,45.0112 102.5004,46.3672 107.1544,46.3672 C110.1504,46.3672 113.0974,45.7992 115.9944,44.6602 L115.9944,38.5182 C113.4574,39.5362 110.9204,40.0462 108.3824,40.0462 C105.5664,40.0462 103.4724,39.3912 102.1054,38.0822 C100.7364,36.7762 100.0524,34.2832 100.0524,30.6072 C100.0524,26.8902 100.7364,24.3892 102.1054,23.1012 C103.4724,21.8122 105.5664,21.1672 108.3824,21.1672 C111.0394,21.1672 113.5764,21.6572 115.9944,22.6352 L115.9944,16.4922 C113.0974,15.3532 110.1504,14.7842 107.1544,14.7842 C102.5004,14.7842 98.9234,16.1432 96.4254,18.8602 L96.4254,18.8602 Z M210.9984,17.1442 C210.1184,17.4712 209.4294,17.7532 208.9314,17.9912 L208.9314,45.8892 L216.3024,45.8892 L216.3024,22.1282 C218.5004,21.4882 221.1364,21.1482 224.2124,21.1072 L224.2124,14.7842 C221.5954,14.8252 218.9594,15.1462 216.3024,15.7492 C213.6454,16.3532 211.8774,16.8182 210.9984,17.1442 L210.9984,17.1442 Z"
           id="Fill-70"
           sketch:type="MSShapeGroup"
           style="fill:#ffffff" />
      </g>
    </g>
  </g>
</svg>
